<svg width="429" height="164" viewBox="0 0 429 164" fill="none" xmlns="http://www.w3.org/2000/svg">
<path d="M157.908 82H162.516V57.844H157.908V82ZM186.542 57.844V74.476L176.354 57.844H171.71V82H176.318V65.368L186.506 82H191.15V57.844H186.542ZM215.145 57.844V74.476L204.957 57.844H200.313V82H204.921V65.368L215.109 82H219.753V57.844H215.145ZM240.259 82.288C247.747 82.288 252.211 76.744 252.211 69.94C252.211 63.1 247.747 57.556 240.259 57.556C232.807 57.556 228.343 63.1 228.343 69.94C228.343 76.744 232.807 82.288 240.259 82.288ZM240.259 77.968C236.083 77.968 233.347 74.62 233.347 69.94C233.347 65.224 236.083 61.876 240.259 61.876C244.507 61.876 247.243 65.224 247.243 69.94C247.243 74.62 244.507 77.968 240.259 77.968ZM275.766 57.844L269.466 75.376L263.166 57.844H258.414L267.09 82H271.842L280.518 57.844H275.766ZM301.209 82H306.105L296.313 57.844H291.993L282.201 82H287.061L289.293 76.168H298.977L301.209 82ZM291.057 71.56L294.153 63.496L297.213 71.56H291.057ZM327.282 57.844H308.598V62.452H315.618V82H320.226V62.452H327.282V57.844ZM335.7 82H340.308V57.844H335.7V82ZM360.845 82.288C368.333 82.288 372.797 76.744 372.797 69.94C372.797 63.1 368.333 57.556 360.845 57.556C353.393 57.556 348.929 63.1 348.929 69.94C348.929 76.744 353.393 82.288 360.845 82.288ZM360.845 77.968C356.669 77.968 353.933 74.62 353.933 69.94C353.933 65.224 356.669 61.876 360.845 61.876C365.093 61.876 367.829 65.224 367.829 69.94C367.829 74.62 365.093 77.968 360.845 77.968ZM396.172 57.844V74.476L385.984 57.844H381.34V82H385.948V65.368L396.136 82H400.78V57.844H396.172ZM418.151 82.288C422.579 82.288 426.287 79.444 426.287 75.484C426.287 68.608 414.479 67.996 414.479 64.324C414.479 62.848 415.883 61.876 418.043 61.876C420.851 61.876 423.335 64.612 423.623 64.9L426.755 61.804C426.395 61.408 422.579 57.556 418.079 57.556C413.651 57.592 409.979 60.4 409.979 64.396C409.979 71.236 421.751 71.884 421.751 75.52C421.751 76.996 420.347 77.968 418.187 77.968C415.343 77.968 412.859 75.196 412.643 74.944L409.511 78.04C409.835 78.436 413.687 82.288 418.151 82.288Z" fill="white"/>
<path d="M157.408 111H159.498V96.238H157.408V111ZM171.615 96.238V107.722L164.311 96.238H162.199V111H164.289V99.516L171.593 111H173.705V96.238H171.615ZM181.965 111H184.055V96.238H181.965V111ZM196.172 96.238V107.722L188.868 96.238H186.756V111H188.846V99.516L196.15 111H198.262V96.238H196.172ZM211.877 96.238H200.173V98.328H204.969V111H207.059V98.328H211.877V96.238ZM223.989 98.328V96.238H213.847V111H223.989V108.91H215.937V104.576H220.425V102.486H215.937V98.328H223.989ZM228.678 108.91V96.238H226.588V111H235.058V108.91H228.678ZM238.99 108.91V96.238H236.9V111H245.37V108.91H238.99ZM247.213 111H249.303V96.238H247.213V111ZM258.672 111.176C260.938 111.176 262.676 110.186 263.754 108.712V111H265.58V103.102H259.002V104.95H263.38C262.94 107.37 261.158 109.218 258.672 109.218C255.636 109.218 253.744 106.82 253.744 103.63C253.744 100.44 255.636 98.042 258.672 98.042C260.542 98.042 262.082 99.12 262.918 100.726L264.832 99.538C263.666 97.448 261.554 96.062 258.672 96.062C254.162 96.062 251.456 99.45 251.456 103.63C251.456 107.788 254.162 111.176 258.672 111.176ZM278.431 98.328V96.238H268.289V111H278.431V108.91H270.379V104.576H274.867V102.486H270.379V98.328H278.431ZM290.445 96.238V107.722L283.141 96.238H281.029V111H283.119V99.516L290.423 111H292.535V96.238H290.445ZM301.92 111.176C304.78 111.176 306.914 109.79 308.08 107.7L306.166 106.512C305.352 108.118 303.79 109.218 301.92 109.218C298.884 109.218 296.992 106.82 296.992 103.63C296.992 100.44 298.884 98.042 301.92 98.042C303.768 98.042 305.33 99.12 306.166 100.726L308.08 99.538C306.914 97.448 304.78 96.062 301.92 96.062C297.388 96.062 294.704 99.45 294.704 103.63C294.704 107.788 297.388 111.176 301.92 111.176ZM320.605 98.328V96.238H310.463V111H320.605V108.91H312.553V104.576H317.041V102.486H312.553V98.328H320.605Z" fill="white"/>
<path d="M77.1568 115.968C76.1221 116.216 74.566 116.907 75.2317 118.77C76.0558 121.078 81.66 118.77 84.3269 118.029" stroke="white" stroke-width="1.5" stroke-linecap="round" stroke-linejoin="round"/>
<path d="M89.5931 98.8145C67.0621 104.027 66.2214 108.462 79.9702 105.944C96.6376 102.891 82.2434 108.462 82.2434 108.462" stroke="white" stroke-width="1.5" stroke-linecap="round" stroke-linejoin="round"/>
<path d="M79.8749 109.039C79.8749 109.039 62.9539 114.278 79.0581 111.996C99.1884 109.142 80.535 114.773 79.0581 115.221" stroke="white" stroke-width="1.5" stroke-linecap="round" stroke-linejoin="round"/>
<circle cx="77.3812" cy="115.715" r="0.494491" fill="white"/>
<circle cx="84.1901" cy="117.983" r="2.0177" fill="white"/>
<circle cx="79.3141" cy="109.071" r="1.51327" fill="white"/>
<path d="M90.6019 94.611C90.6019 94.611 89.7676 91.249 96.1931 80.9055C96.1931 80.9055 100.209 73.3638 100.575 68.972C101.036 63.4267 100.062 59.1583 98.6218 55.9639" stroke="white" stroke-width="2" stroke-linecap="round" stroke-linejoin="round"/>
<circle cx="90.6017" cy="98.4784" r="2.0177" fill="white"/>
<path d="M68.7158 47.9695C68.7158 47.9695 58.8277 53.5024 60.1157 68.9719C60.4814 73.3637 64.4973 80.9054 64.4973 80.9054C70.9229 91.2489 70.545 97.9955 70.545 97.9955V100.16" stroke="white" stroke-width="2" stroke-linecap="round" stroke-linejoin="round"/>
<circle cx="70.4244" cy="100.495" r="2.0177" fill="white"/>
<path d="M73.1152 45.7016C73.1152 45.7016 79.544 42.4338 86.3602 44.9552C93.1764 47.4765 95.9825 52.0708 95.9825 52.0708" stroke="white" stroke-width="2" stroke-linecap="round" stroke-linejoin="round"/>
<circle cx="95.9825" cy="52.0713" r="2.0177" fill="white"/>
<circle cx="88.5844" cy="69.2205" r="1.34513" fill="white"/>
<path d="M73.4515 62.8313C73.4515 63.5742 72.8493 64.1764 72.1064 64.1764C71.3635 64.1764 70.7612 63.5742 70.7612 62.8313C70.7612 62.0884 71.3635 61.4862 72.1064 61.4862C72.8493 61.4862 73.4515 62.0884 73.4515 62.8313Z" fill="white"/>
<circle cx="75.1332" cy="60.8141" r="1.34513" fill="white"/>
<circle cx="80.85" cy="59.805" r="1.34513" fill="white"/>
<circle cx="77.4872" cy="67.8757" r="1.34513" fill="white"/>
<circle cx="75.4696" cy="71.5754" r="1.34513" fill="white"/>
<circle cx="82.5317" cy="64.8495" r="1.34513" fill="white"/>
<circle cx="85.2216" cy="63.168" r="1.34513" fill="white"/>
<circle cx="90.6025" cy="64.8495" r="1.34513" fill="white"/>
<path d="M82.4745 82.6528L86.7995 78.3227M82.4745 82.6528V83.9738M82.4745 82.6528L81.2609 81.4378M86.7995 78.3227L88.2656 76.8549V74.4331M86.7995 78.3227V73.4056M86.7995 71.791V73.4056M88.2656 68.8554V74.4331M82.5478 65.773V71.791L79.9087 74.4331V80.0841L81.2609 81.4378M82.4745 83.9738V90.1648L85.1868 97.3007M82.4745 83.9738L77.7096 79.2034M77.7096 79.2034V76.8549V71.0571M77.7096 79.2034L75.3638 76.8549V72.5249M77.7096 68.8554V71.0571M86.7995 73.4056L85.1868 71.791V63.7181M77.7096 71.0571L80.9717 67.7912V60.4777M88.2656 74.4331L90.6024 72.0951V65.1857M88.2656 74.4331L81.2609 81.4378" stroke="white" stroke-linecap="round" stroke-linejoin="round"/>
<path d="M72.1152 63.036V66.0015L69.0801 69.0402V72.9209L71.201 75.0443M71.201 75.0443L80.1237 83.9774V90.2146L77.6188 95.5234M71.201 75.0443V69.9188L75.1138 66.0015V60.8144M75.1138 100.832L77.6188 95.5234M77.6188 95.5234L81.6907 93.9383" stroke="white" stroke-linecap="round" stroke-linejoin="round"/>
<path d="M84.375 23.1033L130.636 49.8118C132.415 50.8389 133.511 52.7372 133.511 54.7915V108.209C133.511 110.263 132.415 112.161 130.636 113.188L84.375 139.897C82.5959 140.924 80.4041 140.924 78.625 139.897L32.3644 113.188C30.5854 112.161 29.4894 110.263 29.4894 108.209V54.7915C29.4894 52.7372 30.5854 50.8389 32.3644 49.8118L78.625 23.1033C80.4041 22.0761 82.5959 22.0761 84.375 23.1033Z" stroke="white" stroke-width="2.5"/>
<g style="mix-blend-mode:hard-light" filter="url(#filter0_f)">
<circle cx="82.0002" cy="82" r="73.8" fill="#33E9C6" fill-opacity="0.1"/>
</g>
<g style="mix-blend-mode:hard-light" filter="url(#filter1_f)">
<path d="M85.0938 23.2244L131.354 49.9329C133.269 51.0382 134.448 53.0809 134.448 55.2915V108.709C134.448 110.919 133.269 112.962 131.354 114.067L85.0938 140.776C83.1793 141.881 80.8207 141.881 78.9062 140.776L32.6457 114.067C30.7313 112.962 29.5519 110.919 29.5519 108.709V55.2915C29.5519 53.0809 30.7313 51.0382 32.6457 49.9329L78.9062 23.2244C80.8207 22.1191 83.1793 22.1191 85.0938 23.2244Z" stroke="#00A8A8" stroke-width="1.625"/>
</g>
<g style="mix-blend-mode:hard-light" filter="url(#filter2_f)">
<path d="M84.9688 23.4409L131.229 50.1494C133.066 51.2101 134.198 53.1702 134.198 55.2915V108.709C134.198 110.83 133.066 112.79 131.229 113.851L84.9688 140.559C83.1317 141.62 80.8683 141.62 79.0312 140.559L32.7707 113.851C30.9336 112.79 29.8019 110.83 29.8019 108.709V55.2915C29.8019 53.1702 30.9336 51.2101 32.7707 50.1494L79.0312 23.4409C80.8683 22.3802 83.1317 22.3802 84.9688 23.4409Z" stroke="#00A8A8" stroke-width="2.125"/>
</g>
<g style="mix-blend-mode:hard-light" filter="url(#filter3_ddi)">
<path d="M85.0938 23.2244L131.354 49.9329C133.269 51.0382 134.448 53.0809 134.448 55.2915V108.709C134.448 110.919 133.269 112.962 131.354 114.067L85.0938 140.776C83.1793 141.881 80.8207 141.881 78.9062 140.776L32.6457 114.067C30.7313 112.962 29.5519 110.919 29.5519 108.709V55.2915C29.5519 53.0809 30.7313 51.0382 32.6457 49.9329L78.9062 23.2244C80.8207 22.1191 83.1793 22.1191 85.0938 23.2244Z" stroke="#33E9C6" stroke-opacity="0.2" stroke-width="1.625"/>
</g>
<g filter="url(#filter4_f)">
<path d="M85.25 22.9537L131.511 49.6623C133.522 50.8234 134.761 52.9692 134.761 55.2915V108.709C134.761 111.031 133.522 113.177 131.511 114.338L85.25 141.046C83.2389 142.207 80.7611 142.207 78.75 141.046L32.4894 114.338C30.4783 113.177 29.2394 111.031 29.2394 108.709V55.2915C29.2394 52.9692 30.4783 50.8234 32.4894 49.6623L78.75 22.9537C80.7611 21.7926 83.2389 21.7926 85.25 22.9537Z" stroke="#33E9E9"/>
</g>
<g filter="url(#filter5_f)">
<path d="M85.375 22.7372L131.636 49.4458C133.724 50.6516 135.011 52.8799 135.011 55.2915V108.709C135.011 111.12 133.724 113.348 131.636 114.554L85.375 141.263C83.2865 142.469 80.7135 142.469 78.625 141.263L32.3644 114.554C30.276 113.348 28.9894 111.12 28.9894 108.709V55.2915C28.9894 52.8799 30.276 50.6516 32.3644 49.4458L78.625 22.7372C80.7135 21.5315 83.2865 21.5315 85.375 22.7372Z" stroke="white" stroke-width="0.5"/>
</g>
<defs>
<filter id="filter0_f" x="0.700195" y="0.699997" width="162.6" height="162.6" filterUnits="userSpaceOnUse" color-interpolation-filters="sRGB">
<feFlood flood-opacity="0" result="BackgroundImageFix"/>
<feBlend mode="normal" in="SourceGraphic" in2="BackgroundImageFix" result="shape"/>
<feGaussianBlur stdDeviation="3.75" result="effect1_foregroundBlur"/>
</filter>
<filter id="filter1_f" x="21.2393" y="14.0829" width="121.521" height="135.834" filterUnits="userSpaceOnUse" color-interpolation-filters="sRGB">
<feFlood flood-opacity="0" result="BackgroundImageFix"/>
<feBlend mode="normal" in="SourceGraphic" in2="BackgroundImageFix" result="shape"/>
<feGaussianBlur stdDeviation="3.75" result="effect1_foregroundBlur"/>
</filter>
<filter id="filter2_f" x="26.2393" y="19.0829" width="111.521" height="125.834" filterUnits="userSpaceOnUse" color-interpolation-filters="sRGB">
<feFlood flood-opacity="0" result="BackgroundImageFix"/>
<feBlend mode="normal" in="SourceGraphic" in2="BackgroundImageFix" result="shape"/>
<feGaussianBlur stdDeviation="1.25" result="effect1_foregroundBlur"/>
</filter>
<filter id="filter3_ddi" x="25.4893" y="20.8329" width="113.021" height="127.334" filterUnits="userSpaceOnUse" color-interpolation-filters="sRGB">
<feFlood flood-opacity="0" result="BackgroundImageFix"/>
<feColorMatrix in="SourceAlpha" type="matrix" values="0 0 0 0 0 0 0 0 0 0 0 0 0 0 0 0 0 0 127 0"/>
<feOffset dy="1.625"/>
<feGaussianBlur stdDeviation="0.625"/>
<feColorMatrix type="matrix" values="0 0 0 0 0 0 0 0 0 0.3 0 0 0 0 0.275 0 0 0 0.7 0"/>
<feBlend mode="multiply" in2="BackgroundImageFix" result="effect1_dropShadow"/>
<feColorMatrix in="SourceAlpha" type="matrix" values="0 0 0 0 0 0 0 0 0 0 0 0 0 0 0 0 0 0 127 0"/>
<feOffset dy="2.5"/>
<feGaussianBlur stdDeviation="1.625"/>
<feColorMatrix type="matrix" values="0 0 0 0 0 0 0 0 0 0.6 0 0 0 0 0.6 0 0 0 1 0"/>
<feBlend mode="color-dodge" in2="effect1_dropShadow" result="effect2_dropShadow"/>
<feBlend mode="normal" in="SourceGraphic" in2="effect2_dropShadow" result="shape"/>
<feColorMatrix in="SourceAlpha" type="matrix" values="0 0 0 0 0 0 0 0 0 0 0 0 0 0 0 0 0 0 127 0" result="hardAlpha"/>
<feOffset dx="-0.1625" dy="0.325"/>
<feGaussianBlur stdDeviation="0.08125"/>
<feComposite in2="hardAlpha" operator="arithmetic" k2="-1" k3="1"/>
<feColorMatrix type="matrix" values="0 0 0 0 1 0 0 0 0 1 0 0 0 0 1 0 0 0 0.5 0"/>
<feBlend mode="normal" in2="shape" result="effect3_innerShadow"/>
</filter>
<filter id="filter4_f" x="28.4893" y="21.3329" width="107.021" height="121.334" filterUnits="userSpaceOnUse" color-interpolation-filters="sRGB">
<feFlood flood-opacity="0" result="BackgroundImageFix"/>
<feBlend mode="normal" in="SourceGraphic" in2="BackgroundImageFix" result="shape"/>
<feGaussianBlur stdDeviation="0.125" result="effect1_foregroundBlur"/>
</filter>
<filter id="filter5_f" x="28.5726" y="21.4162" width="106.854" height="121.168" filterUnits="userSpaceOnUse" color-interpolation-filters="sRGB">
<feFlood flood-opacity="0" result="BackgroundImageFix"/>
<feBlend mode="normal" in="SourceGraphic" in2="BackgroundImageFix" result="shape"/>
<feGaussianBlur stdDeviation="0.0833333" result="effect1_foregroundBlur"/>
</filter>
</defs>
</svg>
