<svg width="844" height="961" viewBox="0 0 844 961" fill="none" xmlns="http://www.w3.org/2000/svg">
<g style="mix-blend-mode:hard-light" filter="url(#filter0_f)">
<circle cx="363.501" cy="480.5" r="288.3" fill="#33E9C6" fill-opacity="0.1"/>
</g>
<g style="mix-blend-mode:hard-light" filter="url(#filter1_f)">
<path d="M366.594 242.974L567.656 359.058C569.571 360.163 570.75 362.206 570.75 364.416V596.584C570.75 598.794 569.571 600.837 567.656 601.942L366.594 718.026C364.679 719.131 362.321 719.131 360.406 718.026L159.344 601.942C157.429 600.837 156.25 598.794 156.25 596.584V364.416C156.25 362.206 157.429 360.163 159.344 359.058L360.406 242.974C362.321 241.869 364.679 241.869 366.594 242.974Z" stroke="#00A8A8" stroke-width="1.625"/>
</g>
<g style="mix-blend-mode:hard-light" filter="url(#filter2_f)">
<path d="M366.469 243.191L567.531 359.274C569.368 360.335 570.5 362.295 570.5 364.416V596.584C570.5 598.705 569.368 600.665 567.531 601.726L366.469 717.809C364.632 718.87 362.368 718.87 360.531 717.809L159.469 601.726C157.632 600.665 156.5 598.705 156.5 596.584V364.416C156.5 362.295 157.632 360.335 159.469 359.274L360.531 243.191C362.368 242.13 364.632 242.13 366.469 243.191Z" stroke="#00A8A8" stroke-width="2.125"/>
</g>
<g style="mix-blend-mode:hard-light" filter="url(#filter3_ddi)">
<path d="M366.594 242.974L567.656 359.058C569.571 360.163 570.75 362.206 570.75 364.416V596.584C570.75 598.794 569.571 600.837 567.656 601.942L366.594 718.026C364.679 719.131 362.321 719.131 360.406 718.026L159.344 601.942C157.429 600.837 156.25 598.794 156.25 596.584V364.416C156.25 362.206 157.429 360.163 159.344 359.058L360.406 242.974C362.321 241.869 364.679 241.869 366.594 242.974Z" stroke="#33E9C6" stroke-opacity="0.2" stroke-width="1.625"/>
</g>
<g filter="url(#filter4_f)">
<path d="M366.75 242.704L567.813 358.787C569.824 359.948 571.063 362.094 571.063 364.416V596.584C571.063 598.906 569.824 601.052 567.813 602.213L366.75 718.296C364.739 719.457 362.261 719.457 360.25 718.296L159.187 602.213C157.176 601.052 155.937 598.906 155.937 596.584V364.416C155.937 362.094 157.176 359.948 159.187 358.787L360.25 242.704C362.261 241.543 364.739 241.543 366.75 242.704Z" stroke="#33E9E9"/>
</g>
<g filter="url(#filter5_f)">
<path d="M366.875 242.487L567.938 358.571C570.026 359.777 571.313 362.005 571.313 364.416V596.584C571.313 598.995 570.026 601.223 567.938 602.429L366.875 718.513C364.787 719.719 362.213 719.719 360.125 718.513L159.062 602.429C156.974 601.223 155.687 598.995 155.687 596.584V364.416C155.687 362.005 156.974 359.777 159.062 358.571L360.125 242.487C362.213 241.281 364.787 241.281 366.875 242.487Z" stroke="white" stroke-width="0.5"/>
</g>
<defs>
<filter id="filter0_f" x="67.7007" y="184.7" width="591.6" height="591.6" filterUnits="userSpaceOnUse" color-interpolation-filters="sRGB">
<feFlood flood-opacity="0" result="BackgroundImageFix"/>
<feBlend mode="normal" in="SourceGraphic" in2="BackgroundImageFix" result="shape"/>
<feGaussianBlur stdDeviation="3.75" result="effect1_foregroundBlur"/>
</filter>
<filter id="filter1_f" x="147.938" y="233.833" width="431.125" height="493.334" filterUnits="userSpaceOnUse" color-interpolation-filters="sRGB">
<feFlood flood-opacity="0" result="BackgroundImageFix"/>
<feBlend mode="normal" in="SourceGraphic" in2="BackgroundImageFix" result="shape"/>
<feGaussianBlur stdDeviation="3.75" result="effect1_foregroundBlur"/>
</filter>
<filter id="filter2_f" x="152.938" y="238.833" width="421.125" height="483.334" filterUnits="userSpaceOnUse" color-interpolation-filters="sRGB">
<feFlood flood-opacity="0" result="BackgroundImageFix"/>
<feBlend mode="normal" in="SourceGraphic" in2="BackgroundImageFix" result="shape"/>
<feGaussianBlur stdDeviation="1.25" result="effect1_foregroundBlur"/>
</filter>
<filter id="filter3_ddi" x="152.188" y="240.583" width="422.625" height="484.834" filterUnits="userSpaceOnUse" color-interpolation-filters="sRGB">
<feFlood flood-opacity="0" result="BackgroundImageFix"/>
<feColorMatrix in="SourceAlpha" type="matrix" values="0 0 0 0 0 0 0 0 0 0 0 0 0 0 0 0 0 0 127 0"/>
<feOffset dy="1.625"/>
<feGaussianBlur stdDeviation="0.625"/>
<feColorMatrix type="matrix" values="0 0 0 0 0 0 0 0 0 0.3 0 0 0 0 0.275 0 0 0 0.7 0"/>
<feBlend mode="multiply" in2="BackgroundImageFix" result="effect1_dropShadow"/>
<feColorMatrix in="SourceAlpha" type="matrix" values="0 0 0 0 0 0 0 0 0 0 0 0 0 0 0 0 0 0 127 0"/>
<feOffset dy="2.5"/>
<feGaussianBlur stdDeviation="1.625"/>
<feColorMatrix type="matrix" values="0 0 0 0 0 0 0 0 0 0.6 0 0 0 0 0.6 0 0 0 1 0"/>
<feBlend mode="color-dodge" in2="effect1_dropShadow" result="effect2_dropShadow"/>
<feBlend mode="normal" in="SourceGraphic" in2="effect2_dropShadow" result="shape"/>
<feColorMatrix in="SourceAlpha" type="matrix" values="0 0 0 0 0 0 0 0 0 0 0 0 0 0 0 0 0 0 127 0" result="hardAlpha"/>
<feOffset dx="-0.1625" dy="0.325"/>
<feGaussianBlur stdDeviation="0.08125"/>
<feComposite in2="hardAlpha" operator="arithmetic" k2="-1" k3="1"/>
<feColorMatrix type="matrix" values="0 0 0 0 1 0 0 0 0 1 0 0 0 0 1 0 0 0 0.5 0"/>
<feBlend mode="normal" in2="shape" result="effect3_innerShadow"/>
</filter>
<filter id="filter4_f" x="155.188" y="241.083" width="416.625" height="478.834" filterUnits="userSpaceOnUse" color-interpolation-filters="sRGB">
<feFlood flood-opacity="0" result="BackgroundImageFix"/>
<feBlend mode="normal" in="SourceGraphic" in2="BackgroundImageFix" result="shape"/>
<feGaussianBlur stdDeviation="0.125" result="effect1_foregroundBlur"/>
</filter>
<filter id="filter5_f" x="155.271" y="241.166" width="416.459" height="478.668" filterUnits="userSpaceOnUse" color-interpolation-filters="sRGB">
<feFlood flood-opacity="0" result="BackgroundImageFix"/>
<feBlend mode="normal" in="SourceGraphic" in2="BackgroundImageFix" result="shape"/>
<feGaussianBlur stdDeviation="0.0833333" result="effect1_foregroundBlur"/>
</filter>
</defs>
</svg>